<svg width="16" height="14" viewBox="0 0 16 14" fill="none" xmlns="http://www.w3.org/2000/svg">
<path d="M14.9333 2.64465H12.0178L11.0044 0.813542C10.9156 0.653542 10.7378 0.546875 10.5422 0.546875H5.47556C5.28 0.546875 5.10222 0.653542 5.01333 0.813542L3.98222 2.64465H1.06667C0.48 2.64465 0 3.12465 0 3.71132V12.3869C0 12.9735 0.48 13.4535 1.06667 13.4535H14.9333C15.52 13.4535 16 12.9735 16 12.3869V3.71132C16 3.12465 15.52 2.64465 14.9333 2.64465ZM8 11.4091C5.81333 11.4091 4.05333 9.64909 4.05333 7.46243C4.05333 5.27576 5.81333 3.51576 8 3.51576C10.1867 3.51576 11.9467 5.27576 11.9467 7.46243C11.9289 9.63132 10.1689 11.3913 8 11.4091Z" fill="white"/>
<path d="M7.99994 5.48926C6.9155 5.48926 6.02661 6.37815 6.02661 7.4626C6.02661 8.54705 6.9155 9.43594 7.99994 9.43594C9.08439 9.43594 9.97328 8.54705 9.97328 7.4626C9.97328 6.37815 9.08439 5.48926 7.99994 5.48926Z" fill="white"/>
</svg>
