<svg width="14" height="12" viewBox="0 0 14 12" fill="none" xmlns="http://www.w3.org/2000/svg">
<path d="M5.20838 11.3156C4.6443 11.3156 4.10085 11.0951 3.69496 10.6962L0.163562 7.22601C-0.0518763 7.01431 -0.054867 6.66803 0.156833 6.45269C0.368534 6.23726 0.714817 6.23416 0.930255 6.44586L4.46155 9.91605C4.68318 10.1338 4.98781 10.244 5.29746 10.2182C5.6071 10.1924 5.88941 10.0334 6.07195 9.78201L13.0106 0.225589C13.188 -0.0187957 13.5301 -0.0730559 13.7744 0.104358C14.0188 0.281878 14.0731 0.623889 13.8957 0.868273L6.95699 10.4246C6.58721 10.9339 6.01544 11.2559 5.38825 11.3081C5.32822 11.3131 5.26808 11.3156 5.20838 11.3156Z" fill="black"/>
</svg>
