<svg width="15" height="15" viewBox="0 0 15 15" fill="none" xmlns="http://www.w3.org/2000/svg">
<path d="M0.147349 14.8524C0.193786 14.8989 0.24893 14.9358 0.309629 14.961C0.370328 14.9861 0.435392 14.9991 0.5011 14.9991C0.566807 14.9991 0.631871 14.9861 0.69257 14.961C0.753269 14.9358 0.808413 14.8989 0.85485 14.8524L6.99985 8.70744L13.1474 14.8524C13.2412 14.9463 13.3684 14.999 13.5011 14.999C13.6338 14.999 13.761 14.9463 13.8549 14.8524C13.9487 14.7586 14.0014 14.6314 14.0014 14.4987C14.0014 14.366 13.9487 14.2388 13.8549 14.1449L7.70735 7.99994L13.8524 1.85244C13.9462 1.75862 13.9989 1.63137 13.9989 1.49869C13.9989 1.36601 13.9462 1.23876 13.8524 1.14494C13.7585 1.05112 13.6313 0.998413 13.4986 0.998413C13.3659 0.998413 13.2387 1.05112 13.1449 1.14494L6.99985 7.29244L0.85235 1.14744C0.756699 1.06553 0.633661 1.02272 0.507823 1.02759C0.381985 1.03245 0.262615 1.08461 0.173568 1.17366C0.0845205 1.26271 0.0323544 1.38208 0.0274938 1.50791C0.0226333 1.63375 0.0654363 1.75679 0.147349 1.85244L6.29235 7.99994L0.147349 14.1474C0.054224 14.2411 0.00195313 14.3678 0.00195312 14.4999C0.00195313 14.632 0.054224 14.7588 0.147349 14.8524Z" fill="black"/>
</svg>
