<svg width="24" height="22" viewBox="0 0 24 22" fill="none" xmlns="http://www.w3.org/2000/svg">
<path d="M2.56512 17.9428H4.97774C5.45043 17.9428 5.83363 17.5598 5.83363 17.0871V8.51296C5.83363 8.04027 5.45048 7.65741 4.97774 7.65741H2.56512C2.09243 7.65741 1.70923 8.04027 1.70923 8.51296V17.0871C1.70923 17.5598 2.09243 17.9428 2.56512 17.9428Z" fill="#1E1E1E"/>
<path d="M8.05134 17.9428H10.4639C10.9359 17.9428 11.319 17.5598 11.319 17.0871V1.82697C11.319 1.35429 10.9359 0.971573 10.4639 0.971573H8.05134C7.57777 0.971573 7.1955 1.35424 7.1955 1.82697V17.0871C7.1955 17.5598 7.57777 17.9428 8.05134 17.9428Z" fill="#1E1E1E"/>
<path d="M13.5361 17.9428H15.9495C16.4213 17.9428 16.8045 17.5596 16.8045 17.0876V5.59768C16.8045 5.12558 16.4214 4.74248 15.9495 4.74248H13.5361C13.064 4.74248 12.6809 5.12558 12.6809 5.59768V17.0876C12.6809 17.5596 13.064 17.9428 13.5361 17.9428ZM13.7097 5.77133H15.7764V16.9139H13.7097V5.77133Z" fill="#CCCCCC"/>
<path d="M19.108 17.9428H21.5205C21.9932 17.9428 22.3755 17.5598 22.3755 17.0871V11.7696C22.3755 11.2969 21.9932 10.9141 21.5205 10.9141H19.108C18.6353 10.9141 18.2528 11.2969 18.2528 11.7696V17.0871C18.2528 17.5598 18.6353 17.9428 19.108 17.9428Z" fill="#1E1E1E"/>
<path d="M22.9713 18.9714H1.02861C0.460062 18.9714 0 19.4315 0 19.9996C0 20.5682 0.460111 21.0284 1.02861 21.0284H22.9714C23.5399 21.0284 24 20.5681 24 19.9996C24 19.4316 23.5398 18.9714 22.9713 18.9714Z" fill="#CCCCCC"/>
</svg>
