<svg width="24" height="24" viewBox="0 0 24 24" fill="none" xmlns="http://www.w3.org/2000/svg">
<path d="M2.56512 18.9428H4.97774C5.45043 18.9428 5.83363 18.5598 5.83363 18.0871V9.51296C5.83363 9.04027 5.45048 8.65741 4.97774 8.65741H2.56512C2.09243 8.65741 1.70923 9.04027 1.70923 9.51296V18.0871C1.70923 18.5598 2.09243 18.9428 2.56512 18.9428Z" fill="white"/>
<path d="M8.05134 18.9428H10.4639C10.9359 18.9428 11.319 18.5598 11.319 18.0871V2.82697C11.319 2.35429 10.9359 1.97157 10.4639 1.97157H8.05134C7.57777 1.97157 7.1955 2.35424 7.1955 2.82697V18.0871C7.1955 18.5598 7.57777 18.9428 8.05134 18.9428Z" fill="white"/>
<path d="M13.5361 18.9428H15.9494C16.4212 18.9428 16.8044 18.5596 16.8044 18.0876V6.59768C16.8044 6.12558 16.4213 5.74248 15.9494 5.74248H13.5361C13.064 5.74248 12.6809 6.12558 12.6809 6.59768V18.0876C12.6809 18.5596 13.064 18.9428 13.5361 18.9428ZM13.7097 6.77133H15.7764V17.9139H13.7097V6.77133Z" fill="#71BF44"/>
<path d="M19.108 18.9428H21.5205C21.9932 18.9428 22.3755 18.5598 22.3755 18.0871V12.7696C22.3755 12.2969 21.9932 11.9141 21.5205 11.9141H19.108C18.6353 11.9141 18.2528 12.2969 18.2528 12.7696V18.0871C18.2528 18.5598 18.6353 18.9428 19.108 18.9428Z" fill="white"/>
<path d="M22.9713 19.9714H1.02861C0.460062 19.9714 0 20.4315 0 20.9996C0 21.5682 0.460111 22.0284 1.02861 22.0284H22.9714C23.5399 22.0284 24 21.5681 24 20.9996C24 20.4316 23.5398 19.9714 22.9713 19.9714Z" fill="#71BF44"/>
</svg>
