<svg width="22" height="22" viewBox="0 0 22 22" fill="none" xmlns="http://www.w3.org/2000/svg">
<path d="M20.3963 1.62199C20.1949 1.42076 19.9834 1.23501 19.768 1.06992L19.727 1.03847C19.7009 1.01355 19.673 0.990217 19.6438 0.968689C18.7708 0.325919 17.813 0 16.797 0C15.2117 0 13.5628 0.809318 12.0283 2.34038C12.0134 2.35534 11.999 2.37081 11.9851 2.38679L11.9178 2.46469L11.8396 2.53228C11.8237 2.54603 11.8083 2.56034 11.7935 2.57521C10.2624 4.10868 9.4531 5.7577 9.4531 7.34389C9.4531 8.02181 9.61148 8.69706 9.92374 9.35092C9.93989 9.38474 9.95824 9.41744 9.97865 9.44885C10.0436 9.54875 10.2814 9.91076 10.5352 10.2494L6.99773 13.7869C6.6621 14.1225 6.6621 14.6667 6.99773 15.0023C7.16552 15.1701 7.38548 15.2539 7.60544 15.2539C7.8254 15.2539 8.04531 15.1701 8.21315 15.0023L10.2791 12.9363C10.368 13.09 10.4557 13.2517 10.5287 13.397C10.7274 13.8154 10.8281 14.239 10.8281 14.6561C10.8281 15.7703 10.2003 16.9913 9.01194 18.1885L8.91079 18.276C8.87934 18.3032 8.84986 18.3327 8.82262 18.3641L8.73556 18.4649C7.53733 19.6533 6.31629 20.2813 5.20292 20.2813C4.5834 20.2813 3.98854 20.0823 3.43377 19.6896C3.41615 19.6735 3.3978 19.6582 3.37885 19.6437L3.27771 19.5661C3.12138 19.4463 2.96678 19.3103 2.81811 19.1618C2.08863 18.4334 1.71875 17.6378 1.71875 16.7972C1.71875 15.6828 2.34674 14.4617 3.53509 13.2645L3.63624 13.1769C3.66748 13.1499 3.69669 13.1206 3.72372 13.0894L3.81103 12.9885C4.94683 11.8618 6.09801 11.2332 7.14155 11.1704C7.61528 11.1418 7.97622 10.7346 7.94764 10.2608C7.91907 9.78706 7.51155 9.42582 7.03808 9.45469C5.54169 9.54492 4.0401 10.3319 2.57517 11.7936C2.56034 11.8084 2.54603 11.8238 2.53233 11.8396L2.46461 11.9178L2.38623 11.9857C2.3705 11.9993 2.35521 12.0135 2.34051 12.0283C0.809318 13.5617 0 15.2108 0 16.7971C0 18.1106 0.53956 19.3154 1.60364 20.378C1.80508 20.5792 2.01653 20.765 2.23193 20.9301L2.27292 20.9615C2.29909 20.9865 2.32693 21.0098 2.3562 21.0313C3.22919 21.6741 4.18697 22 5.20297 22C6.78822 22 8.43719 21.1907 9.97165 19.6596C9.9866 19.6447 10.001 19.6292 10.0148 19.6132L10.0822 19.5353L10.1603 19.4677C10.1762 19.454 10.1916 19.4397 10.2064 19.4248C11.7375 17.8913 12.5469 16.2423 12.5469 14.6561C12.5469 13.9783 12.3885 13.303 12.0762 12.6492C12.074 12.6445 12.0717 12.6398 12.0694 12.6352C12.0111 12.5185 11.7914 12.0883 11.5287 11.6867L15.0022 8.21319C15.3379 7.87756 15.3379 7.33341 15.0022 6.99782C14.6666 6.66223 14.1224 6.66219 13.7868 6.99782L11.7656 9.01907C11.6529 8.86077 11.54 8.69517 11.4516 8.56081C11.266 8.15622 11.1719 7.74707 11.1719 7.34389C11.1719 6.22966 11.7997 5.00875 12.9881 3.81146L13.0892 3.72402C13.1207 3.69678 13.1501 3.66735 13.1774 3.63585L13.2644 3.53509C14.4626 2.3467 15.6836 1.71875 16.797 1.71875C17.4165 1.71875 18.0114 1.91779 18.5661 2.31048C18.5838 2.3265 18.6021 2.3418 18.6211 2.35633L18.7222 2.43393C18.8785 2.55372 19.0331 2.68976 19.1818 2.83822C19.9113 3.56667 20.2812 4.36228 20.2812 5.20288C20.2812 6.31728 19.6533 7.53828 18.4648 8.73561L18.3637 8.82313C18.3324 8.85016 18.3032 8.87942 18.2762 8.91066L18.189 9.01151C17.0842 10.1066 15.9183 10.7203 14.8154 10.7868C14.3417 10.8154 13.9807 11.2226 14.0093 11.6964C14.0368 12.1525 14.4153 12.5041 14.8663 12.5041C14.8837 12.5041 14.9012 12.5035 14.9189 12.5025C16.4541 12.4099 18.0121 11.6159 19.4247 10.2065C19.4396 10.1916 19.4539 10.1763 19.4676 10.1604L19.5353 10.0822L19.6137 10.0144C19.6294 10.0007 19.6447 9.98652 19.6594 9.97178C21.1906 8.43831 21.9999 6.78929 21.9999 5.20292C22 3.88941 21.4604 2.68461 20.3963 1.62199Z" fill="black"/>
</svg>
