<svg width="225" height="32" viewBox="0 0 225 32" fill="none" xmlns="http://www.w3.org/2000/svg">
<path d="M224.498 26.2745H221.269V13.29C219.919 15.6392 216.255 22.1133 214.796 24.6541C214.482 25.1973 213.999 26.2762 213.359 26.2737H210.715C210.052 26.2737 209.623 25.3221 209.222 24.6431C207.07 20.8556 204.914 17.0699 202.76 13.2832L202.742 26.2737H199.529C199.537 21.1981 199.512 16.088 199.529 11.0141C199.531 10.233 200.68 10.1369 201.224 10.1369L203.698 10.1327C204.866 10.1352 204.94 10.5713 205.19 11.0268C206.11 12.6936 211.03 21.2909 212.009 23.005C214.172 19.2259 216.344 15.4444 218.508 11.6637C219.108 10.4954 219.378 10.1369 220.177 10.1335H222.873C223.601 10.1301 224.44 10.3908 224.5 11.1036C224.494 15.4292 224.503 21.9514 224.498 26.2762V26.2745ZM195.213 26.2745L181.842 26.2728C180.979 26.2728 180.234 25.5052 180.234 24.6397L180.252 11.7396C180.254 11.526 180.296 11.3148 180.378 11.1181C180.46 10.9213 180.579 10.7431 180.729 10.5935C180.879 10.4439 181.057 10.3261 181.252 10.2467C181.447 10.1673 181.656 10.128 181.866 10.131H195.239C196.136 10.1335 196.823 10.8733 196.823 11.7649L196.825 24.6642C196.823 25.5288 196.078 26.2737 195.213 26.2728L195.213 26.2745ZM193.608 13.3743L183.456 13.376V23.0514L193.608 23.0488V13.3743ZM177.532 26.2745H161.168C160.18 26.2728 159.325 25.3888 159.325 24.3934L159.35 8.70202C159.351 8.45725 159.399 8.21508 159.493 7.98947C159.586 7.76386 159.722 7.55928 159.894 7.38754C160.066 7.2158 160.269 7.08029 160.493 6.98884C160.716 6.89738 160.955 6.85179 161.196 6.85468L177.536 6.87999V10.1318L162.639 10.1335L162.636 23.0497L177.535 23.0455L177.531 26.2737L177.532 26.2745ZM152.126 23.0505H140.967L139.104 26.2745L135.391 26.2677L143.789 11.7252C144.309 10.7324 145.236 10.2018 146.569 10.1352C147.951 10.2634 148.89 10.8235 149.388 11.8155L157.686 26.2737L153.976 26.272L152.126 23.0505ZM146.563 13.36L142.841 19.8029L150.263 19.8071L146.563 13.36ZM120.906 13.3769V23.0488H130.638L130.644 19.8097L124.144 19.8071L124.146 16.5831H133.864L133.85 24.6642C133.85 25.5305 133.105 26.2753 132.242 26.2753L130.56 26.2728L119.291 26.2711C118.427 26.2711 117.683 25.506 117.686 24.6397L117.689 11.7421C117.689 10.848 118.418 10.131 119.316 10.131H133.872L133.866 13.3769L120.904 13.3752L120.906 13.3769ZM102.016 13.3769L102.012 16.5823H114.973L114.967 19.808H102.009L102.002 23.0497L114.96 23.0522L114.958 26.2745H100.39C99.5269 26.2745 98.7814 25.5044 98.7814 24.6397L98.7839 11.7421C98.7839 10.8505 99.5144 10.131 100.411 10.131L114.981 10.1327L114.978 13.3786L102.016 13.3769ZM96.0629 26.2745H92.6636V9.66196C91.0831 12.3984 86.3283 21.4141 84.6199 24.3749C84.2497 25.0075 83.6819 26.2728 82.9298 26.2686L79.9066 26.2745C79.1321 26.2745 78.6283 25.156 78.1617 24.3614C75.6333 19.9497 72.7163 14.0644 70.1928 9.65353L70.1679 26.2737H66.7935C66.8018 20.3639 66.7728 13.813 66.7935 7.90151C66.7952 7.09678 67.9955 6.87746 68.6015 6.87746H70.9556C72.322 6.87746 72.6557 7.38358 72.9512 7.915C74.0303 9.85513 80.2843 20.9417 81.4307 22.9417C83.9733 18.5359 87.0754 12.8674 89.6155 8.4633C90.3211 7.10268 90.6215 6.88252 91.5629 6.87746L94.1877 6.87999C95.0402 6.87577 95.9973 7.17185 96.0637 8.00189C96.0571 13.0428 96.0678 21.2344 96.062 26.2728L96.0629 26.2745Z" fill="white"/>
<path d="M43.6885 0.00114245L38.22 3.09489L45.084 7.07062V24.9499L38.2211 28.8857L43.6908 32L57.6428 24.0223V7.95944L43.6885 0V0.00114245Z" fill="white"/>
<path d="M28.836 0.00114245L23.364 3.05148L30.2097 6.98379V24.9499L23.364 28.8857L28.836 32L42.7857 24.0223V7.95944L28.8349 0L28.836 0.00114245Z" fill="white"/>
<path d="M0.5 7.97778L14.1868 0.00805664V0.00919909L27.9171 7.97778V24.0292L14.1868 32.0001L0.5 24.0292V7.97778Z" fill="white"/>
</svg>
