<svg width="168" height="24" viewBox="0 0 168 24" fill="none" xmlns="http://www.w3.org/2000/svg">
<path d="M167.998 19.7059H165.576V9.96753C164.564 11.7295 161.816 16.585 160.722 18.4906C160.487 18.898 160.124 19.7072 159.644 19.7053H157.661C157.164 19.7053 156.842 18.9916 156.542 18.4824C154.927 15.6418 153.31 12.8024 151.695 9.96247L151.681 19.7053H149.272C149.278 15.8986 149.259 12.066 149.272 8.26064C149.273 7.6748 150.135 7.60268 150.543 7.60268L152.398 7.59952C153.274 7.60142 153.33 7.9285 153.518 8.27013C154.207 9.52024 157.897 15.9682 158.632 17.2538C160.254 14.4195 161.883 11.5833 163.506 8.74778C163.956 7.87156 164.158 7.60268 164.758 7.60015H166.78C167.326 7.59762 167.955 7.79311 168 8.3277C167.996 11.5719 168.003 16.4636 167.998 19.7072V19.7059ZM146.035 19.7059L136.007 19.7046C135.359 19.7046 134.801 19.1289 134.801 18.4798L134.814 8.80472C134.815 8.64454 134.847 8.48611 134.909 8.33857C134.97 8.19104 135.059 8.05732 135.172 7.94515C135.284 7.83298 135.418 7.74457 135.564 7.68503C135.71 7.62549 135.867 7.596 136.025 7.59825H146.054C146.727 7.60015 147.242 8.15499 147.242 8.8237L147.244 18.4982C147.242 19.1466 146.684 19.7053 146.034 19.7046L146.035 19.7059ZM144.831 10.0308L137.217 10.0321V17.2885L144.831 17.2867V10.0308ZM132.774 19.7059H120.501C119.76 19.7046 119.119 19.0416 119.119 18.2951L119.137 6.52655C119.138 6.34297 119.174 6.16134 119.244 5.99213C119.314 5.82293 119.417 5.66949 119.545 5.54069C119.674 5.41188 119.827 5.31025 119.994 5.24166C120.162 5.17307 120.341 5.13887 120.522 5.14104L132.777 5.16002V7.59889L121.604 7.60015L121.602 17.2873L132.776 17.2841L132.773 19.7053L132.774 19.7059ZM113.72 17.2879H105.35L103.953 19.7059L101.168 19.7008L107.467 8.79396C107.857 8.04933 108.552 7.6514 109.551 7.60142C110.588 7.69758 111.293 8.11766 111.666 8.86166L117.89 19.7053L115.107 19.704L113.72 17.2879ZM109.547 10.02L106.756 14.8522L112.322 14.8554L109.547 10.02ZM90.3045 10.0327V17.2867H97.6036L97.6079 14.8573L92.7332 14.8554L92.7344 12.4374H100.023L100.012 18.4982C100.012 19.1479 99.4539 19.7065 98.8064 19.7065L97.5451 19.7046L89.093 19.7034C88.4455 19.7034 87.8871 19.1296 87.8895 18.4798L87.892 8.80661C87.892 8.13601 88.4387 7.59825 89.1123 7.59825H100.029L100.025 10.0327L90.3033 10.0314L90.3045 10.0327ZM76.1372 10.0327L76.1341 12.4368H85.8543L85.85 14.856H76.1316L76.1266 17.2873L85.845 17.2892L85.8438 19.7059H74.9176C74.2701 19.7059 73.711 19.1283 73.711 18.4798L73.7129 8.80661C73.7129 8.1379 74.2608 7.59825 74.9331 7.59825L85.8606 7.59952L85.8581 10.034L76.1372 10.0327ZM71.6721 19.7059H69.1226V7.2465C67.9373 9.29882 64.3711 16.0606 63.0899 18.2812C62.8122 18.7557 62.3864 19.7046 61.8223 19.7015L59.5549 19.7059C58.974 19.7059 58.5961 18.867 58.2463 18.2711C56.3499 14.9623 54.1622 10.5483 52.2695 7.24017L52.2509 19.7053H49.7201C49.7263 15.2729 49.7045 10.3598 49.7201 5.92616C49.7213 5.32261 50.6216 5.15812 51.0761 5.15812H52.8417C53.8664 5.15812 54.1167 5.53771 54.3383 5.93628C55.1477 7.39138 59.8382 15.7063 60.6979 17.2063C62.6049 13.902 64.9315 9.65057 66.8365 6.34751C67.3657 5.32704 67.5911 5.16192 68.2971 5.15812L70.2657 5.16002C70.9051 5.15686 71.6229 5.37892 71.6727 6.00145C71.6677 9.78216 71.6758 15.9258 71.6715 19.7046L71.6721 19.7059Z" fill="#472F91"/>
<path d="M32.3914 0.000856837L28.29 2.32117L33.438 5.30296V18.7125L28.2909 21.6643L32.3931 24L42.8571 18.0167V5.96958L32.3914 0V0.000856837Z" fill="#BCBDC0"/>
<path d="M21.252 0.000856837L17.148 2.28861L22.2823 5.23784V18.7125L17.148 21.6643L21.252 24L31.7143 18.0167V5.96958L21.2512 0L21.252 0.000856837Z" fill="#71BF44"/>
<path d="M0 5.98323L10.2651 0.00593567V0.00679251L20.5628 5.98323V18.0218L10.2651 23.9999L0 18.0218V5.98323Z" fill="#472F91"/>
</svg>
