<svg width="24" height="24" viewBox="0 0 24 24" fill="none" xmlns="http://www.w3.org/2000/svg">
<path fill-rule="evenodd" clip-rule="evenodd" d="M4.25 2C3.00736 2 2 3.00736 2 4.25V8.75C2 9.99267 3.00736 11 4.25 11H8.75C9.99267 11 11 9.99267 11 8.75V4.25C11 3.00736 9.99267 2 8.75 2H4.25ZM12.5 17C12.5 14.5147 14.5147 12.5 17 12.5C19.4853 12.5 21.5 14.5147 21.5 17C21.5 19.4853 19.4853 21.5 17 21.5C14.5147 21.5 12.5 19.4853 12.5 17ZM4.25 12.5C3.00736 12.5 2 13.5073 2 14.75V19.25C2 20.4927 3.00736 21.5 4.25 21.5H8.75C9.99267 21.5 11 20.4927 11 19.25V14.75C11 13.5073 9.99267 12.5 8.75 12.5H4.25Z" fill="#1E1E1E"/>
<path d="M13 4.25C13 3.00736 14.0073 2 15.25 2H19.75C20.9927 2 22 3.00736 22 4.25V8.75C22 9.99267 20.9927 11 19.75 11H15.25C14.0073 11 13 9.99267 13 8.75V4.25Z" fill="#CCCCCC"/>
</svg>
