<svg width="24" height="24" viewBox="0 0 24 24" fill="none" xmlns="http://www.w3.org/2000/svg">
<g clip-path="url(#clip0_2172_6565)">
<path d="M23.8208 11.531C23.6066 11.292 18.4539 5.67188 12 5.67188C5.54618 5.67188 0.393492 11.292 0.179226 11.531C-0.0597422 11.7981 -0.0597422 12.2019 0.179226 12.469C0.393492 12.708 5.54627 18.3281 12 18.3281C18.4538 18.3281 23.6065 12.708 23.8208 12.469C24.0597 12.2019 24.0597 11.7981 23.8208 11.531ZM12 16.9219C9.28638 16.9219 7.07815 14.7136 7.07815 12C7.07815 9.28636 9.28638 7.07812 12 7.07812C14.7137 7.07812 16.9219 9.28636 16.9219 12C16.9219 14.7136 14.7137 16.9219 12 16.9219Z" fill="#472F91"/>
<path d="M12.7031 10.5938C12.7031 9.88641 13.0543 9.26414 13.5885 8.88141C13.1091 8.63602 12.5745 8.48438 12 8.48438C10.0616 8.48438 8.48438 10.0616 8.48438 12C8.48438 13.9384 10.0616 15.5156 12 15.5156C13.7355 15.5156 15.1719 14.2484 15.4557 12.5926C14.0398 13.0485 12.7031 11.9776 12.7031 10.5938Z" fill="#472F91"/>
<rect x="1.36422" y="21.724" width="28.7787" height="1.5" rx="0.75" transform="rotate(-45.1467 1.36422 21.724)" fill="#472F91" stroke="#EFEFEF" stroke-width="0.5"/>
</g>
<defs>
<clipPath id="clip0_2172_6565">
<rect width="24" height="24" fill="white"/>
</clipPath>
</defs>
</svg>
