<svg width="24" height="14" viewBox="0 0 24 14" fill="none" xmlns="http://www.w3.org/2000/svg">
<path d="M23.8208 6.53102C23.6066 6.29205 18.4539 0.671875 12 0.671875C5.54618 0.671875 0.393492 6.29205 0.179226 6.53102C-0.0597422 6.79811 -0.0597422 7.20189 0.179226 7.46898C0.393492 7.70795 5.54627 13.3281 12 13.3281C18.4538 13.3281 23.6065 7.70795 23.8208 7.46898C24.0597 7.20189 24.0597 6.79811 23.8208 6.53102ZM12 11.9219C9.28638 11.9219 7.07815 9.71364 7.07815 7C7.07815 4.28636 9.28638 2.07812 12 2.07812C14.7137 2.07812 16.9219 4.28636 16.9219 7C16.9219 9.71364 14.7137 11.9219 12 11.9219Z" fill="#472F91"/>
<path d="M12.7031 5.59375C12.7031 4.88641 13.0543 4.26414 13.5885 3.88141C13.1091 3.63602 12.5745 3.48438 12 3.48438C10.0616 3.48438 8.48438 5.06158 8.48438 7C8.48438 8.93842 10.0616 10.5156 12 10.5156C13.7355 10.5156 15.1719 9.24841 15.4557 7.59259C14.0398 8.04845 12.7031 6.97759 12.7031 5.59375Z" fill="#472F91"/>
</svg>
