<svg width="24" height="24" viewBox="0 0 24 24" fill="none" xmlns="http://www.w3.org/2000/svg">
<path d="M23.6604 14.3357C23.3874 14.1673 23.0349 14.1982 22.7985 14.4143C21.0769 15.9758 18.85 16.8362 16.5291 16.8362C11.3778 16.8362 7.18672 12.6451 7.18672 7.49379C7.18672 5.17274 8.04713 2.94599 9.60866 1.22443C9.82399 0.987123 9.8564 0.63556 9.68721 0.362549C9.51802 0.0902712 9.18678 -0.0360718 8.88081 0.0503541C3.65149 1.53113 0 6.36512 0 11.8056C0 18.5424 5.48054 24.0227 12.2172 24.0227C17.6576 24.0227 22.4918 20.3712 23.9726 15.1421C24.0603 14.8332 23.9327 14.5047 23.6604 14.3357Z" fill="#1E1E1E"/>
<path d="M11.9008 9.50722L13.6033 10.3577L14.4538 12.0604C14.5752 12.304 14.8244 12.4576 15.0967 12.4576C15.3692 12.4576 15.6175 12.304 15.7396 12.0604L16.591 10.3577L18.2928 9.50722C18.5364 9.38509 18.69 9.13661 18.69 8.86433C18.69 8.59205 18.5364 8.34358 18.2928 8.22145L16.591 7.37074L15.7396 5.66822C15.4953 5.18116 14.6968 5.18116 14.4538 5.66822L13.6033 7.37074L11.9008 8.22145C11.6573 8.34285 11.5034 8.59205 11.5034 8.86433C11.5034 9.13661 11.6573 9.38582 11.9008 9.50722Z" fill="#CCCCCC"/>
<path d="M19.4037 3.90034H20.1224V4.61903C20.1224 5.01618 20.4439 5.33772 20.8411 5.33772C21.2383 5.33772 21.5598 5.01618 21.5598 4.61903V3.90034H22.2785C22.6756 3.90034 22.9972 3.57899 22.9972 3.18165C22.9972 2.78449 22.6756 2.46314 22.2785 2.46314H21.5598V1.74445C21.5598 1.34711 21.2383 1.02576 20.8411 1.02576C20.4439 1.02576 20.1224 1.34711 20.1224 1.74445V2.46314H19.4037C19.0066 2.46314 18.6852 2.78449 18.6852 3.18165C18.6852 3.57899 19.0066 3.90034 19.4037 3.90034Z" fill="#CCCCCC"/>
</svg>
