<svg width="24" height="24" viewBox="0 0 24 24" fill="none" xmlns="http://www.w3.org/2000/svg">
<path d="M23.6604 14.3357C23.3874 14.1673 23.0349 14.1982 22.7985 14.4143C21.0769 15.9758 18.85 16.8362 16.5291 16.8362C11.3778 16.8362 7.18672 12.6451 7.18672 7.49379C7.18672 5.17274 8.04713 2.94599 9.60866 1.22443C9.82399 0.987124 9.8564 0.635561 9.68721 0.362551C9.51802 0.0902725 9.18678 -0.0360705 8.88081 0.0503555C3.65149 1.53113 0 6.36512 0 11.8056C0 18.5424 5.48054 24.0227 12.2172 24.0227C17.6576 24.0227 22.4918 20.3712 23.9726 15.1421C24.0603 14.8332 23.9327 14.5047 23.6604 14.3357Z" fill="white"/>
<path d="M11.9008 9.50722L13.6033 10.3577L14.4538 12.0604C14.5752 12.304 14.8244 12.4576 15.0967 12.4576C15.3691 12.4576 15.6174 12.304 15.7396 12.0604L16.591 10.3577L18.2928 9.50722C18.5363 9.38509 18.69 9.13662 18.69 8.86434C18.69 8.59206 18.5363 8.34359 18.2928 8.22146L16.591 7.37075L15.7396 5.66823C15.4953 5.18117 14.6968 5.18117 14.4538 5.66823L13.6033 7.37075L11.9008 8.22146C11.6572 8.34285 11.5034 8.59206 11.5034 8.86434C11.5034 9.13662 11.6572 9.38582 11.9008 9.50722Z" fill="#71BF44"/>
<path d="M19.4037 3.90033H20.1224V4.61902C20.1224 5.01618 20.4439 5.33771 20.8411 5.33771C21.2382 5.33771 21.5598 5.01618 21.5598 4.61902V3.90033H22.2784C22.6756 3.90033 22.9971 3.57898 22.9971 3.18164C22.9971 2.78449 22.6756 2.46314 22.2784 2.46314H21.5598V1.74445C21.5598 1.34711 21.2382 1.02576 20.8411 1.02576C20.4439 1.02576 20.1224 1.34711 20.1224 1.74445V2.46314H19.4037C19.0065 2.46314 18.6852 2.78449 18.6852 3.18164C18.6852 3.57898 19.0065 3.90033 19.4037 3.90033Z" fill="#71BF44"/>
</svg>
