<svg width="20" height="24" viewBox="0 0 20 24" fill="none" xmlns="http://www.w3.org/2000/svg">
<path d="M9.99997 11.7376C12.6684 11.7376 14.8317 9.11006 14.8317 5.86882C14.8317 2.62752 14.1215 0 9.99997 0C5.87849 0 5.16809 2.62752 5.16809 5.86882C5.16809 9.11006 7.33145 11.7376 9.99997 11.7376Z" fill="black"/>
<path d="M0.873754 20.6985C0.87293 20.5009 0.872106 20.6428 0.873754 20.6985V20.6985Z" fill="black"/>
<path d="M19.1259 20.8528C19.1284 20.7987 19.1267 20.4775 19.1259 20.8528V20.8528Z" fill="black"/>
<path d="M19.1155 20.4615C19.026 14.8152 18.2886 13.2063 12.6457 12.1879C12.6457 12.1879 11.8513 13.2001 9.9999 13.2001C8.14847 13.2001 7.354 12.1879 7.354 12.1879C1.77263 13.1952 0.990366 14.7802 0.887509 20.2781C0.879074 20.727 0.875166 20.7506 0.873657 20.6985C0.874 20.7961 0.874411 20.9767 0.874411 21.2917C0.874411 21.2917 2.21786 24 9.9999 24C17.7818 24 19.1254 21.2917 19.1254 21.2917C19.1254 21.0893 19.1255 20.9486 19.1257 20.8529C19.1242 20.8851 19.1212 20.8227 19.1155 20.4615Z" fill="black"/>
</svg>
