<svg width="16" height="16" viewBox="0 0 16 16" fill="none" xmlns="http://www.w3.org/2000/svg">
<path d="M15.8484 15.1295L11.7174 11.0646C12.7992 9.8893 13.4639 8.33495 13.4639 6.62455C13.4634 2.96568 10.4496 0 6.73177 0C3.01389 0 0.000183105 2.96568 0.000183105 6.62455C0.000183105 10.2834 3.01389 13.2491 6.73177 13.2491C8.33815 13.2491 9.81148 12.6935 10.9688 11.7697L15.1157 15.8507C15.3178 16.0498 15.6459 16.0498 15.8479 15.8507C16.0504 15.6517 16.0504 15.3286 15.8484 15.1295ZM6.73177 12.2299C3.58604 12.2299 1.03593 9.72029 1.03593 6.62455C1.03593 3.52881 3.58604 1.01923 6.73177 1.01923C9.87752 1.01923 12.4276 3.52881 12.4276 6.62455C12.4276 9.72029 9.87752 12.2299 6.73177 12.2299Z" fill="black"/>
</svg>
