<svg width="24" height="22" viewBox="0 0 24 22" fill="none" xmlns="http://www.w3.org/2000/svg">
<path d="M20.5355 11.8119H18.6794C18.8686 12.3299 18.972 12.8889 18.972 13.4715V20.4863C18.972 20.7292 18.9297 20.9624 18.8528 21.1792H21.9213C23.0675 21.1792 24 20.2467 24 19.1005V15.2764C24 13.3661 22.4459 11.8119 20.5355 11.8119Z" fill="#1E1E1E"/>
<path d="M5.02806 13.4715C5.02806 12.8889 5.13142 12.3299 5.3206 11.812H3.46454C1.55419 11.812 0 13.3661 0 15.2765V19.1006C0 20.2468 0.932486 21.1793 2.07872 21.1793H5.14726C5.07034 20.9624 5.02806 20.7293 5.02806 20.4863V13.4715Z" fill="#1E1E1E"/>
<path d="M14.1216 10.007H9.87842C7.96807 10.007 6.41388 11.5612 6.41388 13.4715V20.4864C6.41388 20.869 6.7241 21.1793 7.10679 21.1793H16.8933C17.276 21.1793 17.5862 20.869 17.5862 20.4864V13.4715C17.5862 11.5612 16.032 10.007 14.1216 10.007Z" fill="#1E1E1E"/>
<path d="M12 0.820633C9.70259 0.820633 7.8335 2.68973 7.8335 4.98722C7.8335 6.54558 8.69361 7.9066 9.96383 8.62117C10.5663 8.96007 11.2609 9.15376 12 9.15376C12.7392 9.15376 13.4338 8.96007 14.0362 8.62117C15.3065 7.9066 16.1666 6.54554 16.1666 4.98722C16.1666 2.68978 14.2975 0.820633 12 0.820633Z" fill="#1E1E1E"/>
<path d="M4.68368 4.70418C2.96547 4.70418 1.56766 6.10199 1.56766 7.8202C1.56766 9.53841 2.96547 10.9362 4.68368 10.9362C5.11952 10.9362 5.53455 10.8459 5.91157 10.6837C6.56341 10.403 7.10088 9.90624 7.43346 9.28397C7.6669 8.84724 7.79969 8.349 7.79969 7.8202C7.79969 6.10204 6.40188 4.70418 4.68368 4.70418Z" fill="#CCCCCC"/>
<path d="M19.3164 4.70418C17.5982 4.70418 16.2003 6.10199 16.2003 7.8202C16.2003 8.34905 16.3331 8.84728 16.5666 9.28397C16.8992 9.90629 17.4366 10.4031 18.0885 10.6837C18.4655 10.8459 18.8805 10.9362 19.3164 10.9362C21.0346 10.9362 22.4324 9.53841 22.4324 7.8202C22.4324 6.10199 21.0346 4.70418 19.3164 4.70418Z" fill="#CCCCCC"/>
</svg>
