<svg width="24" height="24" viewBox="0 0 24 24" fill="none" xmlns="http://www.w3.org/2000/svg">
<g clip-path="url(#clip0_16_52)">
<path d="M23.5972 10.9252L19.9599 7.28792V3.0862C19.9599 2.32647 19.3442 1.71077 18.5834 1.71077C17.8243 1.71077 17.2086 2.32647 17.2086 3.0862V4.53672L14.5004 1.82835C13.1614 0.49008 10.8333 0.492454 9.49734 1.83077L0.402689 10.9252C-0.134189 11.4632 -0.134189 12.3336 0.402689 12.8707C0.939809 13.4085 1.81193 13.4085 2.34886 12.8707L11.4426 3.77602C11.7389 3.48133 12.261 3.48133 12.5557 3.77515L21.6511 12.8707C21.9208 13.1397 22.2724 13.2734 22.6239 13.2734C22.9762 13.2734 23.3284 13.1395 23.5972 12.8707C24.1343 12.3337 24.1343 11.4632 23.5972 10.9252Z" fill="#CCCCCC"/>
<path d="M12.4778 6.38692C12.2136 6.12284 11.7857 6.12284 11.5223 6.38692L3.52261 14.3842C3.39631 14.5105 3.32471 14.6828 3.32471 14.8627V20.6957C3.32471 22.0644 4.43451 23.1742 5.8032 23.1742H9.76385V17.0404H14.2354V23.1742H18.1961C19.5647 23.1742 20.6745 22.0644 20.6745 20.6957V14.8627C20.6745 14.6828 20.6035 14.5105 20.4766 14.3842L12.4778 6.38692Z" fill="#1E1E1E"/>
</g>
<defs>
<clipPath id="clip0_16_52">
<rect width="24" height="24" fill="white"/>
</clipPath>
</defs>
</svg>
